<svg width="108" height="18" viewBox="0 0 108 18" fill="none" xmlns="http://www.w3.org/2000/svg">
<g clip-path="url(#clip0_1_316)">
<path d="M108 9C108 4.029 103.971 0 99 0C94.029 0 90 4.029 90 9C90 13.4929 93.2906 17.2162 97.5938 17.8912V11.601H95.3085V9H97.5938V7.017C97.5938 4.76175 98.9366 3.51562 100.993 3.51562C101.978 3.51562 103.008 3.6915 103.008 3.6915V5.90625H101.872C100.755 5.90625 100.406 6.60075 100.406 7.3125V9H102.902L102.503 11.6017H100.406V17.8909C104.709 17.2162 108 13.4929 108 9Z" fill="#1877F2"/>
<path d="M102.503 11.6017L102.902 9H100.406V7.3125C100.406 6.60075 100.754 5.90625 101.873 5.90625H103.008V3.6915C103.008 3.6915 101.978 3.51562 100.994 3.51562C98.9368 3.51562 97.5939 4.76175 97.5939 7.017V9H95.3086V11.6017H97.5939V17.8909C98.0525 17.9633 98.522 18 99.0001 18C99.4783 18 99.9478 17.9632 100.406 17.8912V11.601H102.503V11.6017Z" fill="white"/>
</g>
<g clip-path="url(#clip1_1_316)">
<path d="M60 9C60 4.02938 64.0294 0 69 0C73.9706 0 78 4.02938 78 9C78 13.9706 73.9706 18 69 18C64.0294 18 60 13.9706 60 9Z" fill="#3FA4F1"/>
<path d="M68.7304 7.31546L68.7491 7.62671L68.4345 7.58846C67.2889 7.44221 66.288 6.94646 65.4382 6.11396L65.0224 5.70109L64.9155 6.00596C64.689 6.68621 64.8337 7.40434 65.3055 7.88734C65.5575 8.15434 65.5009 8.19221 65.0666 8.03359C64.9155 7.98259 64.7831 7.94434 64.7704 7.96346C64.7265 8.00809 64.8776 8.58634 64.9972 8.81509C65.1611 9.13309 65.4945 9.44434 65.8597 9.62884L66.1684 9.77509L65.8031 9.78109C65.4506 9.78109 65.4379 9.78746 65.4757 9.92096C65.6017 10.3342 66.099 10.7726 66.6532 10.9635L67.0432 11.097L66.7035 11.3002C66.1892 11.5957 65.609 11.7574 65.016 11.7705C64.7329 11.7768 64.5 11.8023 64.5 11.8215C64.5 11.8852 65.268 12.2407 65.715 12.3806C67.056 12.7938 68.6486 12.6157 69.8449 11.9103C70.6946 11.4082 71.5444 10.4103 71.9411 9.44434C72.1549 8.92946 72.369 7.98896 72.369 7.53784C72.369 7.24534 72.3877 7.20709 72.7402 6.85759C72.9484 6.65434 73.1434 6.43196 73.1812 6.36821C73.2442 6.24746 73.2379 6.24746 72.9169 6.35546C72.3817 6.54634 72.306 6.52084 72.5707 6.23471C72.7657 6.03146 72.9986 5.66284 72.9986 5.55484C72.9986 5.53609 72.9041 5.56759 72.7972 5.62459C72.684 5.68834 72.432 5.78359 72.2434 5.84096L71.9032 5.94896L71.5946 5.73896C71.4247 5.62459 71.1859 5.49746 71.0599 5.45959C70.7385 5.37034 70.2476 5.38309 69.9581 5.48509C69.171 5.77084 68.6737 6.50809 68.7304 7.31509V7.31546Z" fill="white"/>
</g>
<g clip-path="url(#clip2_1_316)">
<path d="M5.22 10.44C8.103 10.44 10.44 8.103 10.44 5.22C10.44 2.337 8.103 0 5.22 0C2.337 0 0 2.337 0 5.22C0 8.103 2.337 10.44 5.22 10.44Z" fill="#28A8EA"/>
<path d="M12.7799 17.9999C15.6629 17.9999 17.9999 15.6629 17.9999 12.7799C17.9999 9.89694 15.6629 7.55994 12.7799 7.55994C9.89691 7.55994 7.55991 9.89694 7.55991 12.7799C7.55991 15.6629 9.89691 17.9999 12.7799 17.9999Z" fill="#28A8EA"/>
<path d="M9.00014 17.64C13.772 17.64 17.6401 13.7719 17.6401 8.99999C17.6401 4.22811 13.772 0.359985 9.00014 0.359985C4.22826 0.359985 0.360138 4.22811 0.360138 8.99999C0.360138 13.7719 4.22826 17.64 9.00014 17.64Z" fill="#28A8EA"/>
<path fill-rule="evenodd" clip-rule="evenodd" d="M6.75937 8.83609C6.42154 8.61353 6.1397 8.31592 5.93587 7.96646C5.73895 7.59759 5.64175 7.18369 5.65387 6.76572C5.63887 6.23517 5.81991 5.7177 6.16237 5.31222C6.51813 4.90509 6.97539 4.59947 7.48762 4.42647C8.04494 4.22975 8.63212 4.13104 9.22312 4.13472C9.60975 4.13097 9.996 4.16059 10.3777 4.22322C10.6507 4.26522 10.9189 4.33459 11.1784 4.42984C11.4164 4.51054 11.6314 4.64785 11.8046 4.82997C11.9325 4.97997 12.0015 5.17122 11.9985 5.36809C12.0031 5.47039 11.9875 5.5726 11.9526 5.66887C11.9176 5.76513 11.864 5.85356 11.7949 5.92909C11.7295 5.99872 11.6501 6.05372 11.562 6.0905C11.4738 6.12727 11.3789 6.14498 11.2834 6.14246C11.1519 6.14146 11.0221 6.11231 10.9027 6.05697C10.6091 5.92572 10.3065 5.81509 9.99712 5.72584C9.71242 5.6508 9.41892 5.61435 9.1245 5.61747C8.7411 5.60331 8.36178 5.70019 8.03212 5.89647C7.89292 5.98104 7.779 6.10147 7.70228 6.24515C7.62556 6.38883 7.58885 6.55049 7.596 6.71322C7.59388 6.92671 7.67499 7.13263 7.82212 7.28734C7.99713 7.46888 8.20392 7.61682 8.43225 7.72384C8.68837 7.85059 9.06975 8.01897 9.57712 8.22896C9.63337 8.24659 9.6885 8.26871 9.74137 8.29459C10.2366 8.49033 10.7114 8.73425 11.1589 9.02284C11.5122 9.25341 11.8101 9.55936 12.0311 9.91872C12.2488 10.2961 12.3578 10.7263 12.3461 11.1618C12.3645 11.6955 12.2115 12.221 11.9096 12.6615C11.6024 13.0783 11.1774 13.3936 10.6894 13.5667C10.1014 13.7767 9.48 13.878 8.85562 13.8656C7.99762 13.8956 7.14375 13.7343 6.35587 13.3931C6.15418 13.3034 5.97735 13.1659 5.84062 12.9926C5.72739 12.834 5.6687 12.6429 5.67337 12.4481C5.66766 12.3452 5.68436 12.2424 5.7223 12.1466C5.76024 12.0509 5.81852 11.9645 5.89312 11.8935C6.04987 11.7566 6.25312 11.685 6.46087 11.6936C6.6922 11.6968 6.9194 11.7553 7.1235 11.8642C7.377 11.991 7.57725 12.0862 7.7235 12.1496C7.89112 12.2197 8.06475 12.2745 8.24212 12.3135C8.46075 12.3615 8.68425 12.3847 8.90812 12.3825C9.30386 12.4106 9.69764 12.3055 10.0267 12.084C10.1499 11.9875 10.2484 11.8631 10.314 11.7211C10.3796 11.5791 10.4104 11.4235 10.404 11.2672C10.4045 11.0452 10.32 10.8314 10.1677 10.6698C9.96674 10.4628 9.73155 10.2919 9.4725 10.1647C9.16612 10.0027 8.73525 9.80584 8.17987 9.57409C7.68291 9.37616 7.20703 9.12893 6.75937 8.83609Z" fill="white"/>
<path opacity="0.1" fill-rule="evenodd" clip-rule="evenodd" d="M6.85073 0.26252C6.6224 0.186086 6.38894 0.125935 6.15211 0.0825195C4.73064 0.538776 3.4385 1.32749 2.38293 2.38319C1.32736 3.43889 0.538814 4.73112 0.0827332 6.15264C0.126233 6.38964 0.186233 6.62289 0.262733 6.85127C0.326483 7.05752 0.407108 7.25889 0.503858 7.45239C0.81652 5.72444 1.64939 4.13317 2.89104 2.89145C4.13269 1.64973 5.72392 0.816775 7.45186 0.504019C7.25841 0.40735 7.05736 0.326705 6.85073 0.262895V0.26252Z" fill="black"/>
<path opacity="0.1" fill-rule="evenodd" clip-rule="evenodd" d="M6.85108 0.262573C5.2565 0.65573 3.79977 1.4774 2.63846 2.63871C1.47716 3.80001 0.655486 5.25674 0.262329 6.85132C0.326079 7.05757 0.406704 7.25895 0.503454 7.45245C0.81614 5.72444 1.64906 4.13313 2.89079 2.89141C4.13251 1.64968 5.72382 0.816759 7.45183 0.504073C7.2585 0.40742 7.05758 0.326775 6.85108 0.262948V0.262573Z" fill="black"/>
<path opacity="0.1" fill-rule="evenodd" clip-rule="evenodd" d="M17.7376 11.1491C17.6736 10.9425 17.5929 10.7414 17.4961 10.548C17.1834 12.2759 16.3505 13.8671 15.1088 15.1088C13.8672 16.3504 12.276 17.1833 10.5481 17.496C10.7416 17.5927 10.9426 17.6733 11.1492 17.7371C11.3776 17.8136 11.6108 17.8736 11.8474 17.9171C13.269 17.461 14.5612 16.6725 15.6169 15.6169C16.6726 14.5614 17.4613 13.2692 17.9176 11.8477C17.8742 11.6109 17.814 11.3774 17.7376 11.1491Z" fill="black"/>
<path opacity="0.1" fill-rule="evenodd" clip-rule="evenodd" d="M17.4961 10.548C17.1834 12.2759 16.3505 13.8671 15.1088 15.1088C13.8672 16.3504 12.276 17.1833 10.5481 17.496C10.7416 17.5927 10.9426 17.6733 11.1492 17.7371C12.7436 17.3439 14.2001 16.5223 15.3613 15.3611C16.5225 14.2 17.3442 12.7435 17.7376 11.1491C17.6738 10.9425 17.5931 10.7414 17.4964 10.548H17.4961Z" fill="black"/>
</g>
<g clip-path="url(#clip3_1_316)">
<path d="M30 9C30 4.02938 34.0294 0 39 0C43.9706 0 48 4.02938 48 9C48 13.9706 43.9706 18 39 18C34.0294 18 30 13.9706 30 9Z" fill="#0077B5"/>
<path fill-rule="evenodd" clip-rule="evenodd" d="M36.4945 5.55862C36.4945 6.147 36.0516 6.61762 35.3402 6.61762H35.3275C34.6427 6.61762 34.1998 6.147 34.1998 5.55862C34.1998 4.9575 34.6562 4.5 35.3537 4.5C36.0512 4.5 36.4813 4.9575 36.4945 5.55862ZM36.3602 7.45425V13.5825H34.3202V7.45425H36.3602ZM43.7155 13.5825V10.0688C43.7155 8.18625 42.7093 7.31025 41.3672 7.31025C40.2846 7.31025 39.7997 7.905 39.529 8.32238V7.45425H37.489C37.516 8.0295 37.489 13.5825 37.489 13.5825H39.529V10.1599C39.529 9.97688 39.5421 9.79425 39.5961 9.663C39.7435 9.297 40.0791 8.91825 40.6423 8.91825C41.3811 8.91825 41.6762 9.48037 41.6762 10.3039V13.5825H43.7155Z" fill="white"/>
</g>
<defs>
<clipPath id="clip0_1_316">
<rect width="18" height="18" fill="white" transform="translate(90)"/>
</clipPath>
<clipPath id="clip1_1_316">
<rect width="18" height="18" fill="white" transform="translate(60)"/>
</clipPath>
<clipPath id="clip2_1_316">
<rect width="18" height="18" fill="white"/>
</clipPath>
<clipPath id="clip3_1_316">
<rect width="18" height="18" fill="white" transform="translate(30)"/>
</clipPath>
</defs>
</svg>
